<svg width="125" height="30" viewBox="0 0 125 30" fill="none" xmlns="http://www.w3.org/2000/svg">
    <g clip-path="url(#clip0_1_3)">
        <rect width="125" height="30" fill="transparent"/>
        <path d="M35.577 23V9.7H38.123L43.785 19.086H42.436L48.003 9.7H50.53L50.568 23H47.68L47.661 14.127H48.193L43.747 21.594H42.36L37.819 14.127H38.465V23H35.577ZM53.5145 23V12.778H56.4785V23H53.5145ZM54.9965 11.353C54.4518 11.353 54.0085 11.1947 53.6665 10.878C53.3245 10.5613 53.1535 10.1687 53.1535 9.7C53.1535 9.23133 53.3245 8.83867 53.6665 8.522C54.0085 8.20533 54.4518 8.047 54.9965 8.047C55.5412 8.047 55.9845 8.199 56.3265 8.503C56.6685 8.79433 56.8395 9.17433 56.8395 9.643C56.8395 10.137 56.6685 10.5487 56.3265 10.878C55.9972 11.1947 55.5538 11.353 54.9965 11.353ZM65.4423 12.626C66.253 12.626 66.975 12.7907 67.6083 13.12C68.2543 13.4367 68.761 13.9307 69.1283 14.602C69.4957 15.2607 69.6793 16.1093 69.6793 17.148V23H66.7153V17.604C66.7153 16.7807 66.5317 16.1727 66.1643 15.78C65.8097 15.3873 65.303 15.191 64.6443 15.191C64.1757 15.191 63.7513 15.2923 63.3713 15.495C63.004 15.685 62.7127 15.9827 62.4973 16.388C62.2947 16.7933 62.1933 17.3127 62.1933 17.946V23H59.2293V12.778H62.0603V15.609L61.5283 14.754C61.8957 14.07 62.4213 13.5443 63.1053 13.177C63.7893 12.8097 64.5683 12.626 65.4423 12.626ZM72.366 23V12.778H75.33V23H72.366ZM73.848 11.353C73.3034 11.353 72.86 11.1947 72.518 10.878C72.176 10.5613 72.005 10.1687 72.005 9.7C72.005 9.23133 72.176 8.83867 72.518 8.522C72.86 8.20533 73.3034 8.047 73.848 8.047C74.3927 8.047 74.836 8.199 75.178 8.503C75.52 8.79433 75.691 9.17433 75.691 9.643C75.691 10.137 75.52 10.5487 75.178 10.878C74.8487 11.1947 74.4054 11.353 73.848 11.353ZM81.5199 23.152C80.6459 23.152 79.8036 23.0507 78.9929 22.848C78.1949 22.6327 77.5616 22.3667 77.0929 22.05L78.0809 19.922C78.5496 20.2133 79.1006 20.454 79.7339 20.644C80.3799 20.8213 81.0132 20.91 81.6339 20.91C82.3179 20.91 82.7992 20.8277 83.0779 20.663C83.3692 20.4983 83.5149 20.2703 83.5149 19.979C83.5149 19.7383 83.4009 19.561 83.1729 19.447C82.9576 19.3203 82.6662 19.2253 82.2989 19.162C81.9316 19.0987 81.5262 19.0353 81.0829 18.972C80.6522 18.9087 80.2152 18.8263 79.7719 18.725C79.3286 18.611 78.9232 18.4463 78.5559 18.231C78.1886 18.0157 77.8909 17.7243 77.6629 17.357C77.4476 16.9897 77.3399 16.5147 77.3399 15.932C77.3399 15.286 77.5236 14.716 77.8909 14.222C78.2709 13.728 78.8156 13.3417 79.5249 13.063C80.2342 12.7717 81.0829 12.626 82.0709 12.626C82.7676 12.626 83.4769 12.702 84.1989 12.854C84.9209 13.006 85.5226 13.2277 86.0039 13.519L85.0159 15.628C84.5219 15.3367 84.0216 15.1403 83.5149 15.039C83.0209 14.925 82.5396 14.868 82.0709 14.868C81.4122 14.868 80.9309 14.9567 80.6269 15.134C80.3229 15.3113 80.1709 15.5393 80.1709 15.818C80.1709 16.0713 80.2786 16.2613 80.4939 16.388C80.7219 16.5147 81.0196 16.616 81.3869 16.692C81.7542 16.768 82.1532 16.8377 82.5839 16.901C83.0272 16.9517 83.4706 17.034 83.9139 17.148C84.3572 17.262 84.7562 17.4267 85.1109 17.642C85.4782 17.8447 85.7759 18.1297 86.0039 18.497C86.2319 18.8517 86.3459 19.3203 86.3459 19.903C86.3459 20.5363 86.1559 21.1 85.7759 21.594C85.3959 22.0753 84.8449 22.4553 84.1229 22.734C83.4136 23.0127 82.5459 23.152 81.5199 23.152ZM94.3876 12.626C95.1983 12.626 95.9203 12.7907 96.5536 13.12C97.1996 13.4367 97.7063 13.9307 98.0736 14.602C98.441 15.2607 98.6246 16.1093 98.6246 17.148V23H95.6606V17.604C95.6606 16.7807 95.477 16.1727 95.1096 15.78C94.755 15.3873 94.2483 15.191 93.5896 15.191C93.121 15.191 92.6966 15.2923 92.3166 15.495C91.9493 15.685 91.658 15.9827 91.4426 16.388C91.24 16.7933 91.1386 17.3127 91.1386 17.946V23H88.1746V8.902H91.1386V15.609L90.4736 14.754C90.841 14.07 91.3666 13.5443 92.0506 13.177C92.7346 12.8097 93.5136 12.626 94.3876 12.626ZM106.25 23.152C105.16 23.152 104.191 22.924 103.343 22.468C102.507 22.012 101.842 21.3913 101.348 20.606C100.866 19.808 100.626 18.9023 100.626 17.889C100.626 16.863 100.866 15.9573 101.348 15.172C101.842 14.374 102.507 13.7533 103.343 13.31C104.191 12.854 105.16 12.626 106.25 12.626C107.326 12.626 108.289 12.854 109.138 13.31C109.986 13.7533 110.651 14.3677 111.133 15.153C111.614 15.9383 111.855 16.8503 111.855 17.889C111.855 18.9023 111.614 19.808 111.133 20.606C110.651 21.3913 109.986 22.012 109.138 22.468C108.289 22.924 107.326 23.152 106.25 23.152ZM106.25 20.72C106.744 20.72 107.187 20.606 107.58 20.378C107.972 20.15 108.283 19.827 108.511 19.409C108.739 18.9783 108.853 18.4717 108.853 17.889C108.853 17.2937 108.739 16.787 108.511 16.369C108.283 15.951 107.972 15.628 107.58 15.4C107.187 15.172 106.744 15.058 106.25 15.058C105.756 15.058 105.312 15.172 104.92 15.4C104.527 15.628 104.21 15.951 103.97 16.369C103.742 16.787 103.628 17.2937 103.628 17.889C103.628 18.4717 103.742 18.9783 103.97 19.409C104.21 19.827 104.527 20.15 104.92 20.378C105.312 20.606 105.756 20.72 106.25 20.72ZM119.878 23.152C119.016 23.152 118.263 22.962 117.617 22.582C116.971 22.202 116.464 21.6257 116.097 20.853C115.742 20.0677 115.565 19.0797 115.565 17.889C115.565 16.6857 115.736 15.6977 116.078 14.925C116.42 14.1523 116.914 13.576 117.56 13.196C118.206 12.816 118.978 12.626 119.878 12.626C120.84 12.626 121.702 12.8477 122.462 13.291C123.234 13.7217 123.842 14.3297 124.286 15.115C124.742 15.9003 124.97 16.825 124.97 17.889C124.97 18.9657 124.742 19.8967 124.286 20.682C123.842 21.4673 123.234 22.0753 122.462 22.506C121.702 22.9367 120.84 23.152 119.878 23.152ZM113.836 26.686V12.778H116.667V14.868L116.61 17.908L116.8 20.929V26.686H113.836ZM119.365 20.72C119.859 20.72 120.296 20.606 120.676 20.378C121.068 20.15 121.379 19.827 121.607 19.409C121.847 18.9783 121.968 18.4717 121.968 17.889C121.968 17.2937 121.847 16.787 121.607 16.369C121.379 15.951 121.068 15.628 120.676 15.4C120.296 15.172 119.859 15.058 119.365 15.058C118.871 15.058 118.427 15.172 118.035 15.4C117.642 15.628 117.332 15.951 117.104 16.369C116.876 16.787 116.762 17.2937 116.762 17.889C116.762 18.4717 116.876 18.9783 117.104 19.409C117.332 19.827 117.642 20.15 118.035 20.378C118.427 20.606 118.871 20.72 119.365 20.72Z"
              fill="#8F8F8F"/>
        <circle cx="15" cy="15" r="15" fill="#EBEBEB"/>
        <g clip-path="url(#clip1_1_3)">
            <path d="M21 8H25L15 24.9846L5 8H8.95H12.65L15 11.9385L17.3 8H21Z" fill="#41B883"/>
            <path d="M5 8L15 24.9846L25 8H21L15 18.1908L8.95 8H5Z" fill="#41B883"/>
            <path d="M8.95001 8L15 18.24L21 8H17.3L15 11.9385L12.65 8H8.95001Z" fill="#35495E"/>
        </g>
    </g>
    <defs>
        <clipPath id="clip0_1_3">
            <rect width="125" height="30" fill="transparent"/>
        </clipPath>
        <clipPath id="clip1_1_3">
            <rect width="20" height="17" fill="transparent" transform="translate(5 8)"/>
        </clipPath>
    </defs>
</svg>
